# xmcd CD database file
#
# Track frame offsets:
#	150
#	11705
#	22579
#	33950
#	46069
#	57873
#	70412
#	82693
#	95805
#	108056
#	121925
#	134458
#	145829
#	158009
#	170601
#	183245
#	195418
#	207572
#
# Disc length: 2929 seconds
#
# Revision: 1
# Processed by: cddbd v1.5.2PL0 Copyright (c) Steve Scherf et al.
# Submitted via: CDex 1.70beta2
#
DISCID=e40b6f12
DTITLE=Sonny Terry - The Ultimate Jazz Archive Set 13
DYEAR=2005
DGENRE=Blues
TTITLE0=Bye Bye Baby Blues
TTITLE1=Mistreater, You're Going To Be Sorry 
TTITLE2=Mean And No Good Woman
TTITLE3=Pistol Slapper Blues
TTITLE4=Stop Jivin' Me Mama
TTITLE5=Train Whistle Blues
TTITLE6=New Love Blues
TTITLE7=I'm A Stranger Here
TTITLE8=I Want Some Of Your Pie
TTITLE9=I Don't Care How Long
TTITLE10=Blues And Worried Man
TTITLE11=Harmonica And Washboard Breakdown
TTITLE12=Harmonica Blues
TTITLE13=Somebody's Been Talkin'
TTITLE14=Harmonica Stomp
TTITLE15=Twelve Gates To The City
TTITLE16=You Got To Have Your Dollar
TTITLE17=Don't Want No Skinny Woman
EXTD=YEAR: 2005
EXTT0=
EXTT1=
EXTT2=
EXTT3=
EXTT4=
EXTT5=
EXTT6=
EXTT7=
EXTT8=
EXTT9=
EXTT10=
EXTT11=
EXTT12=
EXTT13=
EXTT14=
EXTT15=
EXTT16=
EXTT17=
PLAYORDER=
